# xmcd
#
# Track frame offsets:
#	150
#	19221
#	48556
#	61711
#	83648
#	100203
#	114620
#	129473
#	139955
#	155774
#	174556
#	185119
#	199398
#	215047
#	225360
#	241788
#	254727
#	263793
#	281583
#	294767
#
# Disc length: 4136 seconds
#
# Revision: 4
# Processed by: cddbd v1.5.2PL0 Copyright (c) Steve Scherf et al.
# Submitted via: audiograbber 1.83.01
#
DISCID=2c102614
DTITLE=Latino Salsa - CD 3-3] - Soirée Soul ~ Brazil  - Maxi 3CD
DYEAR=2011
DGENRE=Salsa
TTITLE0=01 - Latina Soul - Conga 
TTITLE1=02 - Yemaya - Descarga De La Luz
TTITLE2=03 - Cubanito Mambo - Cuban Mambo  (Pepita)
TTITLE3=04 - Julio Cordoba - Montuno 
TTITLE4=05 - Yemaya - Esta Si Va
TTITLE5=06 - Cubanito Mambo - Tu Amigo
TTITLE6=07 - Benny Perez Y Su Orquestra - Los Feos Pa' La Cocina
TTITLE7=08 - Benny Perez Y Su Orquestra - Mango Mamey 
TTITLE8=09 - Benny Perez Y Su Orquestra - Ombresito 
TTITLE9=10 - Rafelin Ràsario - La Camisa Negra
TTITLE10=11 - Sambrasil - Vou Festejar
TTITLE11=12 - Grupo Novo Sambrazil - Quem Te Viu Quem Te Vé
TTITLE12=13 - The Brasil Singers - Mas Que Nada
TTITLE13=14 - Paulo Moura - Mistura E Manda
TTITLE14=15 - Martinho Da Vila - Batuca No Chao
TTITLE15=16 - Wilson Simonal - País Tropical
TTITLE16=17 - Pery Ribeiro - Bossa Na Praia
TTITLE17=18 - Zeze Motta - Gabriela
TTITLE18=19 - Familia Jobim - Correnteza
TTITLE19=20 - Belchior - Aguas De Março
EXTD=YEAR: 2011
EXTT0=
EXTT1=
EXTT2=
EXTT3=
EXTT4=
EXTT5=
EXTT6=
EXTT7=
EXTT8=
EXTT9=
EXTT10=
EXTT11=
EXTT12=
EXTT13=
EXTT14=
EXTT15=
EXTT16=
EXTT17=
EXTT18=
EXTT19=
PLAYORDER=
